# xmcd
#
# Track frame offsets: 
#        150
#        13908
#        25643
#        37325
#        51247
#        64881
#        76007
#        89651
#        101965
#        115628
#        129123
#        138423
#        149327
#        161046
#        170337
#
# Disc length: 2456 seconds
#
# Revision: 2
# Processed by: cddbd v1.5.2PL0 Copyright (c) Steve Scherf et al.
# Submitted via: ExactAudioCopy v0.99pb5
#
DISCID=cd09960f
DTITLE=Oberkrainer Power - Ein Lied für dich
DYEAR=1900
DGENRE=Folk
TTITLE0=Gruss an St. Pongratzen
TTITLE1=Jeder Tag a Schmäh
TTITLE2=Fahr mal nach Südtirol
TTITLE3=Alle Zeit in Zweisamkeit
TTITLE4=Grenzlandfieber
TTITLE5=Für unsere Mütter
TTITLE6=Steiermark
TTITLE7=Ein Lied für dich
TTITLE8=Veronika
TTITLE9=Ich denk an dich
TTITLE10=Besuch beim Stollez Karl
TTITLE11=Boarisch tanz'n is wie's Leb'n
TTITLE12=Hohner Bravour
TTITLE13=Tanz in den Morgen
TTITLE14=5 Jahre um die Welt
EXTD=
EXTT0=
EXTT1=
EXTT2=
EXTT3=
EXTT4=
EXTT5=
EXTT6=
EXTT7=
EXTT8=
EXTT9=
EXTT10=
EXTT11=
EXTT12=
EXTT13=
EXTT14=
PLAYORDER=
